# xmcd CD database file
# Copyright (C) 1996 Ti Kan
#
# Track frame offsets:
# 	182
# 	21180
# 	42165
# 	64430
# 	85472
# 	94272
# 	117995
# 	123510
# 	141597
# 	159635
# 	179332
# 	196982
# 	212325
# 	232160
# 	241897
#
# Disc length: 3484 seconds
#
# Revision: 1
# Processed by: cddbd v1.4b41PL1 Copyright (c) Steve Scherf et al.
# Submitted via: DiscPlay 3.4.1
#
DISCID=dd0d9a0f
DTITLE=Shai - Blackface
DYEAR=1900
DGENRE=
TTITLE0=Come with Me
TTITLE1=During the Storm
TTITLE2=I Don't Wanna Be Alone
TTITLE3=Mr. Turn U Out
TTITLE4=Concert A (The Hidden One)
TTITLE5=Falling
TTITLE6=Planet Solitude
TTITLE7=Did You Know
TTITLE8=To Get to Know You
TTITLE9=Let's Go Back
TTITLE10=Will I Find Someone
TTITLE11=95
TTITLE12=The Place Where You Belong
TTITLE13=If I Gave (A Confession)
TTITLE14=Come with Me (A Cappella)
EXTD=
EXTT0=
EXTT1=
EXTT2=
EXTT3=
EXTT4=
EXTT5=
EXTT6=
EXTT7=
EXTT8=
EXTT9=
EXTT10=
EXTT11=
EXTT12=
EXTT13=
EXTT14=
PLAYORDER=
